<svg width="32" height="32" viewBox="0 0 32 32" fill="none" xmlns="http://www.w3.org/2000/svg">
<g clip-path="url(#clip0_207_425)">
<path d="M16 32C24.8366 32 32 24.8366 32 16C32 7.16344 24.8366 0 16 0C7.16344 0 0 7.16344 0 16C0 24.8366 7.16344 32 16 32Z" fill="#012152"/>
<path fill-rule="evenodd" clip-rule="evenodd" d="M13.1492 15.2516C13.9791 15.8142 14.9574 16.1177 15.96 16.1236C17.296 16.1304 18.5806 15.6092 19.5341 14.6734C20.4875 13.7376 21.0327 12.463 21.051 11.1272C21.0639 10.1246 20.7788 9.14078 20.2318 8.30045C19.6848 7.46013 18.9006 6.80119 17.9786 6.40719C17.0566 6.01319 16.0384 5.90188 15.053 6.0874C14.0677 6.27291 13.1596 6.74687 12.444 7.44919C11.7284 8.1515 11.2375 9.05051 11.0336 10.0322C10.8296 11.0139 10.9218 12.0341 11.2985 12.9633C11.6751 13.8925 12.3192 14.689 13.1492 15.2516ZM18.0527 9.68098C18.3263 10.0876 18.4731 10.5662 18.4746 11.0563C18.4767 11.3812 18.4147 11.7034 18.292 12.0042C18.1693 12.3051 17.9884 12.5788 17.7597 12.8096C17.5309 13.0403 17.2589 13.2236 16.9591 13.349C16.6593 13.4743 16.3377 13.5392 16.0128 13.5399C15.5227 13.5428 15.0428 13.4002 14.6338 13.1302C14.2248 12.8601 13.9051 12.4748 13.7153 12.023C13.5254 11.5712 13.4739 11.0732 13.5672 10.5921C13.6605 10.111 13.8945 9.66835 14.2395 9.32028C14.5845 8.97222 15.025 8.73435 15.5053 8.63679C15.9856 8.53923 16.484 8.58638 16.9375 8.77226C17.3909 8.95814 17.7791 9.27439 18.0527 9.68098Z" fill="white"/>
<path d="M10.8709 18.6072C12.0672 19.5417 13.4654 19.9254 15.0163 20.0872C14.9843 20.1219 14.9554 20.1536 14.9285 20.1829C14.8653 20.2521 14.8135 20.3087 14.76 20.3636C13.6254 21.5029 12.4872 22.6417 11.3454 23.7799C11.1011 23.9946 10.9498 24.2958 10.9236 24.6199C10.92 24.8822 10.9922 25.1399 11.1315 25.3622C11.2708 25.5844 11.4714 25.7617 11.7091 25.8726C11.9284 25.9871 12.1796 26.0255 12.4231 25.9818C12.6667 25.938 12.8888 25.8145 13.0545 25.6308C13.9472 24.7508 14.8363 23.8726 15.7109 22.9636C15.9327 22.7399 16.0491 22.6908 16.2963 22.949C16.8687 23.5483 17.4568 24.1328 18.045 24.7175C18.3311 25.0019 18.6173 25.2864 18.9018 25.5726C19.1093 25.8083 19.3984 25.9564 19.7109 25.9872C19.978 25.9939 20.2411 25.9217 20.4674 25.7798C20.6938 25.6378 20.8733 25.4324 20.9836 25.189C21.0919 24.967 21.1253 24.7159 21.0787 24.4733C21.0322 24.2307 20.9082 24.0097 20.7254 23.8436C20.037 23.1475 19.3454 22.4541 18.6536 21.7606C18.1924 21.2983 17.7312 20.8359 17.2709 20.3726C17.2067 20.3138 17.1602 20.2618 17.0894 20.1827C17.064 20.1543 17.0354 20.1224 17.0018 20.0854C17.8508 20.0031 18.6863 19.8156 19.4891 19.5272C20.3136 19.2199 21.0613 18.7366 21.68 18.1108C22.0836 17.6963 22.0872 17.1763 21.76 16.6417C21.631 16.419 21.4309 16.2461 21.1919 16.1508C20.9528 16.0555 20.6886 16.0433 20.4418 16.1163C20.1763 16.192 19.929 16.3207 19.7145 16.4945C18.5922 17.2275 17.2781 17.6121 15.9377 17.5998C14.5973 17.5875 13.2904 17.1789 12.1818 16.4254C12.0733 16.3477 11.959 16.2784 11.84 16.2181C11.22 15.9254 10.6254 16.0617 10.2709 16.5708C9.85633 17.1636 9.90905 17.7399 10.4327 18.2436C10.5476 18.3569 10.674 18.4548 10.8002 18.5523C10.8238 18.5706 10.8474 18.5889 10.8709 18.6072Z" fill="white"/>
</g>
<defs>
<clipPath id="clip0_207_425">
<rect width="32" height="32" fill="white"/>
</clipPath>
</defs>
</svg>
