<svg width="32" height="32" viewBox="0 0 32 32" fill="none" xmlns="http://www.w3.org/2000/svg">
<g clip-path="url(#clip0_182_1607)">
<path d="M16 32C24.8366 32 32 24.8366 32 16C32 7.16344 24.8366 0 16 0C7.16344 0 0 7.16344 0 16C0 24.8366 7.16344 32 16 32Z" fill="#F96600"/>
<path fill-rule="evenodd" clip-rule="evenodd" d="M13.1489 15.2516C13.9788 15.8143 14.9572 16.1178 15.9598 16.1236C17.2958 16.1305 18.5803 15.6092 19.5338 14.6735C20.4873 13.7377 21.0325 12.4631 21.0507 11.1273C21.0637 10.1247 20.7786 9.14084 20.2316 8.30052C19.6846 7.46019 18.9004 6.80125 17.9784 6.40725C17.0564 6.01325 16.0381 5.90194 15.0528 6.08746C14.0674 6.27297 13.1594 6.74694 12.4438 7.44925C11.7282 8.15156 11.2373 9.05057 11.0333 10.0323C10.8294 11.014 10.9216 12.0341 11.2982 12.9634C11.6749 13.8926 12.319 14.689 13.1489 15.2516ZM18.0524 9.68104C18.3261 10.0876 18.4729 10.5663 18.4743 11.0563C18.4765 11.3813 18.4145 11.7034 18.2918 12.0043C18.1691 12.3052 17.9882 12.5789 17.7594 12.8096C17.5307 13.0404 17.2586 13.2237 16.9588 13.349C16.659 13.4744 16.3375 13.5393 16.0125 13.54C15.5224 13.5429 15.0425 13.4002 14.6336 13.1302C14.2246 12.8602 13.9049 12.4749 13.715 12.0231C13.5252 11.5713 13.4736 11.0733 13.5669 10.5921C13.6602 10.111 13.8942 9.66841 14.2392 9.32035C14.5842 8.97228 15.0248 8.73441 15.505 8.63685C15.9853 8.5393 16.4838 8.58644 16.9372 8.77232C17.3907 8.9582 17.7788 9.27445 18.0524 9.68104Z" fill="white"/>
<path d="M10.8706 18.6073C12.067 19.5418 13.4652 19.9254 15.0161 20.0873C14.9841 20.122 14.9551 20.1536 14.9283 20.183C14.8651 20.2521 14.8133 20.3088 14.7597 20.3636C13.6252 21.503 12.487 22.6418 11.3452 23.78C11.1009 23.9946 10.9496 24.2958 10.9234 24.62C10.9197 24.8823 10.9919 25.14 11.1313 25.3622C11.2706 25.5845 11.4711 25.7617 11.7088 25.8727C11.9282 25.9872 12.1793 26.0256 12.4229 25.9818C12.6664 25.938 12.8885 25.8146 13.0543 25.6309C13.947 24.7509 14.8361 23.8727 15.7106 22.9636C15.9324 22.74 16.0488 22.6909 16.2961 22.9491C16.8685 23.5484 17.4565 24.1329 18.0447 24.7175C18.3309 25.002 18.6171 25.2865 18.9015 25.5727C19.109 25.8083 19.3982 25.9565 19.7106 25.9873C19.9777 25.9939 20.2409 25.9218 20.4672 25.7798C20.6935 25.6379 20.8731 25.4324 20.9834 25.1891C21.0916 24.9671 21.125 24.7159 21.0785 24.4733C21.0319 24.2307 20.908 24.0098 20.7252 23.8436C20.0368 23.1476 19.3451 22.4542 18.6533 21.7606C18.1922 21.2983 17.731 20.8359 17.2706 20.3727C17.2064 20.3138 17.1599 20.2619 17.0891 20.1828C17.0637 20.1543 17.0352 20.1224 17.0015 20.0854C17.8506 20.0032 18.686 19.8157 19.4888 19.5273C20.3134 19.22 21.061 18.7366 21.6797 18.1109C22.0834 17.6963 22.087 17.1763 21.7597 16.6418C21.6308 16.419 21.4307 16.2461 21.1916 16.1508C20.9525 16.0555 20.6883 16.0434 20.4415 16.1163C20.1761 16.1921 19.9287 16.3207 19.7143 16.4945C18.592 17.2275 17.2779 17.6121 15.9374 17.5998C14.597 17.5875 13.2902 17.1789 12.1815 16.4254C12.0731 16.3477 11.9588 16.2784 11.8397 16.2182C11.2197 15.9254 10.6252 16.0618 10.2706 16.5709C9.85608 17.1636 9.90881 17.74 10.4324 18.2436C10.5473 18.357 10.6738 18.4548 10.7999 18.5524C10.8235 18.5707 10.8471 18.5889 10.8706 18.6073Z" fill="white"/>
</g>
<defs>
<clipPath id="clip0_182_1607">
<rect width="32" height="32" fill="white"/>
</clipPath>
</defs>
</svg>
