<svg width="16" height="16" viewBox="0 0 16 16" fill="none" xmlns="http://www.w3.org/2000/svg">
<path d="M15.9938 2.21502C15.772 4.67466 14.8126 10.6435 14.3243 13.3983C14.1178 14.564 13.7111 14.9549 13.3175 14.9931C12.462 15.0762 11.8122 14.3961 10.9834 13.8226C9.68671 12.9252 8.95413 12.3665 7.69535 11.4908C6.24071 10.4788 7.18372 9.92274 8.01272 9.01327C8.22969 8.77536 11.9995 5.15524 12.0725 4.82683C12.0816 4.78574 12.0903 4.63239 12.0039 4.55186C11.9175 4.47132 11.7906 4.4986 11.6989 4.52049C11.5688 4.55169 9.49725 5.99726 5.48413 8.85721C4.89617 9.28347 4.36358 9.49117 3.88636 9.4803C3.36029 9.46832 2.34836 9.16631 1.59606 8.90808C0.673365 8.59146 -0.0599882 8.42406 0.0038772 7.88628C0.0371466 7.60612 0.402516 7.31969 1.09999 7.02699C5.39515 5.05133 8.25925 3.7488 9.69229 3.11941C13.784 1.32261 14.6342 1.01051 15.1883 1.0001C15.3103 0.997965 15.5828 1.02983 15.7593 1.18105C15.8767 1.28878 15.9515 1.4391 15.969 1.60229C15.9989 1.80492 16.0072 2.01044 15.9938 2.21502Z" fill="#A3CAEB"/>
</svg>
