<svg width="32" height="32" viewBox="0 0 32 32" fill="none" xmlns="http://www.w3.org/2000/svg">
<g clip-path="url(#clip0_428_686)">
<path d="M16 32C24.8366 32 32 24.8366 32 16C32 7.16344 24.8366 0 16 0C7.16344 0 0 7.16344 0 16C0 24.8366 7.16344 32 16 32Z" fill="url(#paint0_linear_428_686)"/>
<path fill-rule="evenodd" clip-rule="evenodd" d="M7.24238 15.8309C11.9067 13.7988 15.017 12.459 16.5732 11.8118C21.0166 9.96363 21.9399 9.64257 22.5416 9.63195C22.674 9.62963 22.9699 9.66245 23.1616 9.81801C23.446 10.0488 23.4476 10.5496 23.4161 10.8811C23.1753 13.4111 22.1334 19.5507 21.6033 22.3843C21.379 23.5833 20.9374 23.9854 20.5099 24.0247C19.5808 24.1102 18.8752 23.4106 17.9753 22.8208C16.5671 21.8976 15.7715 21.323 14.4046 20.4223C12.8249 19.3813 13.8489 18.8091 14.7492 17.8741C14.9848 17.6294 19.0786 13.9057 19.1579 13.5679C19.1678 13.5256 19.177 13.3681 19.0834 13.285C18.9899 13.2019 18.8518 13.2303 18.7522 13.2529C18.6109 13.2849 16.3613 14.7719 12.0033 17.7136C11.3648 18.1521 10.7864 18.3658 10.2682 18.3546C9.69688 18.3423 8.598 18.0316 7.78106 17.766C6.77906 17.4403 5.98269 17.2681 6.05206 16.7149C6.08819 16.4268 6.48494 16.1321 7.24238 15.8309V15.8309Z" fill="white"/>
</g>
<defs>
<linearGradient id="paint0_linear_428_686" x1="16" y1="0" x2="16" y2="31.75" gradientUnits="userSpaceOnUse">
<stop stop-color="#2AABEE"/>
<stop offset="1" stop-color="#229ED9"/>
</linearGradient>
<clipPath id="clip0_428_686">
<rect width="32" height="32" fill="white"/>
</clipPath>
</defs>
</svg>
