<svg width="16" height="16" viewBox="0 0 16 16" fill="none" xmlns="http://www.w3.org/2000/svg">
<path d="M0 3H2.73831C2.82825 7.57713 4.84696 9.5159 6.44598 9.91567V3H9.02437V6.94752C10.6034 6.77764 12.2623 4.97877 12.822 3H15.4004C15.1894 4.02622 14.769 4.99782 14.1654 5.85422C13.5619 6.71056 12.7881 7.43316 11.8926 7.97689C12.8925 8.4733 13.7757 9.17631 14.4837 10.0394C15.1918 10.9025 15.7086 11.9061 16 12.9838H13.1618C12.9003 12.0477 12.368 11.2097 11.6319 10.5749C10.8959 9.94024 9.98875 9.53705 9.02437 9.416V12.9838H8.71455C3.24799 12.9838 0.129921 9.23611 0 3Z" fill="#A3CAEB"/>
</svg>
