<svg width="32" height="32" viewBox="0 0 32 32" fill="none" xmlns="http://www.w3.org/2000/svg">
<g clip-path="url(#clip0_350_887)">
<path d="M2.24934 2.24934C0 4.49866 0 8.11936 0 15.36V16.64C0 23.8806 0 27.5014 2.24934 29.7506C4.49866 32 8.11936 32 15.36 32H16.64C23.8806 32 27.5014 32 29.7506 29.7506C32 27.5014 32 23.8806 32 16.64V15.36C32 8.11936 32 4.49866 29.7506 2.24934C27.5014 0 23.8806 0 16.64 0H15.36C8.11936 0 4.49866 0 2.24934 2.24934ZM5.4 9.73336H9.05336C9.17336 15.84 11.8666 18.4266 14 18.96V9.73336H17.44V15C19.5466 14.7734 21.76 12.3734 22.5066 9.73336H25.9466C25.6652 11.1025 25.1043 12.3988 24.299 13.5414C23.4938 14.6839 22.4615 15.6479 21.2666 16.3734C22.6007 17.0356 23.7791 17.9736 24.7237 19.1251C25.6684 20.2766 26.3579 21.6156 26.7466 23.0534H22.96C22.6111 21.8044 21.901 20.6864 20.9189 19.8396C19.9369 18.9928 18.7266 18.4549 17.44 18.2934V23.0534H17.0266C9.73336 23.0534 5.57334 18.0534 5.4 9.73336Z" fill="#8E9DA6"/>
</g>
<defs>
<clipPath id="clip0_350_887">
<rect width="32" height="32" fill="white"/>
</clipPath>
</defs>
</svg>
